<svg xmlns="http://www.w3.org/2000/svg" viewBox="0 0 1440 250"><defs><linearGradient id="a" x1="0" x2="0" y1="1" y2="0"><stop offset="0%" stop-color="#124591"/><stop offset="100%" stop-color="#0f61dd"/></linearGradient></defs><path fill="url(#a)" d="m0 125 60-16.7C120 92 240 58 360 54.2 480 50 600 75 720 100c120 25 240 50 360 37.5s240-62.5 360-79.2c120-16.3 240-.3 360 12.5C1920 83 2040 92 2160 100s240 17 360 29.2c120 12.8 240 28.8 360 20.8s240-42 360-50 240 8 360 0 240-42 360-62.5 240-29.5 360 0 240 95.5 360 120.8c120 24.7 240 8.7 360-8.3s240-33 360-29.2c120 4.2 240 29.2 360 12.5 120-16.3 240-75.3 360-66.6 120 8.3 240 83.3 360 116.6 120 33.7 240 24.7 360 4.2s240-54.5 360-83.3C7320 75 7440 50 7560 37.5s240-12.5 360 0 240 37.5 360 50 240 12.5 300 12.5h60v150H0Z" style="transform:translate(0,0);opacity:1"/></svg>
