<svg width="64" height="64" viewBox="0 0 32 32" fill="none" xmlns="http://www.w3.org/2000/svg">
  <path d="M2.585 17.413a1.999 1.999 0 0 1 0-2.826L14.587 2.585c.78-.78 2.046-.78 2.826 0l12.002 12.002c.78.78.78 2.046 0 2.826L17.413 29.415c-.78.78-2.046.78-2.826 0L2.585 17.413Z" fill="#EE513B"/>
  <path d="m12.149 5.062-1.215 1.215 3.139 3.139A2.126 2.126 0 0 0 15.25 12.3v7.679a2.126 2.126 0 1 0 1.718.097v-7.765l3 3a2.125 2.125 0 1 0 1.283-1.147l-3.221-3.223a2.125 2.125 0 0 0-2.66-2.66l-3.221-3.22Z" fill="#fff"/>
</svg>
