<svg fill="#3b82f6" xmlns="http://www.w3.org/2000/svg" width="399.998" height="399.997" viewBox="0 0 399.998 399.997" style="enable-background:new 0 0 399.998 399.997" xml:space="preserve">
  <path d="m292.41 236.617-42.814-27.769c5.495-15.665 4.255-33.162-3.707-48.011l35.117-31.373c19.292 12.035 45.001 9.686 61.771-7.085 19.521-19.52 19.521-51.171 0-70.692-19.522-19.521-51.175-19.521-70.694 0-15.378 15.378-18.632 38.274-9.788 56.848l-35.121 31.378c-16.812-11.635-38.258-13.669-56.688-6.078l-40.5-55.733c14.528-19.074 13.095-46.421-4.331-63.849-19.004-19.004-49.816-19.004-68.821 0-19.005 19.005-19.005 49.818 0 68.822 13.646 13.646 33.374 17.491 50.451 11.545l40.505 55.738c-20.002 23.461-18.936 58.729 3.242 80.906.426.426.864.825 1.303 1.237l-39.242 68.874c-16.31-3.857-34.179.564-46.899 13.286-19.521 19.522-19.521 51.175 0 70.694 19.521 19.521 51.173 19.521 70.693 0 19.317-19.315 19.508-50.503.593-70.069l39.239-68.867c19.705 5.658 41.737.978 57.573-14.033l42.855 27.79c-2.736 12.706.821 26.498 10.696 36.372 15.469 15.469 40.544 15.469 56.012 0 15.468-15.466 15.468-40.543 0-56.011-14.024-14.019-35.947-15.328-51.445-3.92zM83.129 338.906c-.951 1.078-1.846 2.096-2.724 2.973-1.094 1.093-2.589 2.425-4.444 2.998-2.33.719-4.711.086-6.536-1.739-4.772-4.771-2.947-13.799 4.246-20.989 7.195-7.195 16.219-9.021 20.993-4.247 1.824 1.822 2.457 4.205 1.737 6.536-.572 1.855-1.904 3.354-2.997 4.444-.878.876-1.896 1.771-2.975 2.722-1.245 1.096-2.535 2.229-3.805 3.497-1.269 1.269-2.4 2.559-3.495 3.805zM279.56 59.17c7.193-7.193 16.219-9.02 20.991-4.247 1.823 1.823 2.458 4.205 1.737 6.537-.572 1.856-1.905 3.354-2.997 4.446-.876.875-1.894 1.77-2.974 2.72-1.246 1.097-2.534 2.229-3.805 3.498-1.271 1.271-2.403 2.562-3.5 3.808-.948 1.076-1.846 2.097-2.72 2.973-1.093 1.093-2.591 2.425-4.446 2.998-2.332.719-4.712.086-6.536-1.739-4.769-4.773-2.944-13.802 4.25-20.994zM73.322 37.854c-.928 1.05-1.799 2.042-2.648 2.895-1.063 1.063-2.521 2.358-4.329 2.919-2.269.698-4.587.083-6.364-1.691-4.646-4.647-2.866-13.436 4.138-20.438 7.003-7.004 15.788-8.782 20.436-4.135 1.776 1.776 2.395 4.095 1.692 6.363-.561 1.807-1.854 3.265-2.918 4.326-.854.854-1.846 1.727-2.896 2.648-1.213 1.066-2.469 2.17-3.704 3.406-1.237 1.237-2.342 2.495-3.407 3.707zm86.645 117.906c8.593-8.594 19.371-10.774 25.073-5.073 2.18 2.181 2.937 5.024 2.078 7.81-.688 2.218-2.277 4.005-3.583 5.312-1.047 1.047-2.265 2.112-3.553 3.248-1.486 1.311-3.026 2.662-4.544 4.179-1.518 1.519-2.87 3.058-4.178 4.547-1.136 1.287-2.205 2.505-3.251 3.55-1.306 1.31-3.093 2.896-5.311 3.582-2.784.859-5.628.104-7.811-2.077-5.698-5.706-3.513-16.484 5.08-25.078zM299.11 262.103c-.868.866-2.056 1.923-3.524 2.376-1.846.569-3.729.068-5.178-1.377-3.783-3.781-2.338-10.933 3.365-16.633 5.697-5.7 12.849-7.146 16.632-3.362 1.443 1.443 1.945 3.33 1.376 5.179-.453 1.471-1.51 2.656-2.375 3.521-.694.692-1.5 1.402-2.355 2.155-.984.866-2.008 1.766-3.013 2.771-1.007 1.006-1.907 2.026-2.771 3.016-.755.855-1.465 1.66-2.157 2.354z"/>
</svg>
